REM DIRINDEX 1\2,1\3,1\4,1\5
REM DIRNAME "folder01","folder02","folder03","folder04","folder05"
TITLE ""
FILE "P1Q_t_1578-1587.mp3" MP3
  TRACK 01 AUDIO
    TITLE "0:"
    INDEX 01 00:00:00
  TRACK 02 AUDIO
    TITLE "3:cjc173_5714"
    INDEX 01 00:00:10
  TRACK 03 AUDIO
    TITLE "0:"
    INDEX 01 00:01:39
  TRACK 04 AUDIO
    TITLE "4:cjc173_5715"
    INDEX 01 00:01:61
  TRACK 05 AUDIO
    TITLE "0:"
    INDEX 01 00:04:45
  TRACK 06 AUDIO
    TITLE "5:cjc173_5716"
    INDEX 01 00:04:65
  TRACK 07 AUDIO
    TITLE "0:"
    INDEX 01 00:09:52
  TRACK 08 AUDIO
    TITLE "3:cjc173_5717"
    INDEX 01 00:10:24
  TRACK 09 AUDIO
    TITLE "0:"
    INDEX 01 00:11:36
  TRACK 10 AUDIO
    TITLE "4:cjc173_5718"
    INDEX 01 00:11:55
  TRACK 11 AUDIO
    TITLE "0:"
    INDEX 01 00:14:24
  TRACK 12 AUDIO
    TITLE "5:cjc173_5719"
    INDEX 01 00:14:44
  TRACK 13 AUDIO
    TITLE "0:"
    INDEX 01 00:19:19
  TRACK 14 AUDIO
    TITLE "3:cjc173_5720"
    INDEX 01 00:19:66
  TRACK 15 AUDIO
    TITLE "0:"
    INDEX 01 00:20:72
  TRACK 16 AUDIO
    TITLE "4:cjc173_5721"
    INDEX 01 00:21:18
  TRACK 17 AUDIO
    TITLE "0:"
    INDEX 01 00:25:12
  TRACK 18 AUDIO
    TITLE "5:cjc173_5722"
    INDEX 01 00:25:32
  TRACK 19 AUDIO
    TITLE "0:"
    INDEX 01 00:30:09
  TRACK 20 AUDIO
    TITLE "3:cjc173_5723"
    INDEX 01 00:30:54
  TRACK 21 AUDIO
    TITLE "0:"
    INDEX 01 00:32:01
  TRACK 22 AUDIO
    TITLE "4:cjc173_5724"
    INDEX 01 00:32:20
  TRACK 23 AUDIO
    TITLE "0:"
    INDEX 01 00:33:35
  TRACK 24 AUDIO
    TITLE "5:cjc173_5725"
    INDEX 01 00:33:57
  TRACK 25 AUDIO
    TITLE "0:"
    INDEX 01 00:37:08
  TRACK 26 AUDIO
    TITLE "3:cjc173_5726"
    INDEX 01 00:37:53
  TRACK 27 AUDIO
    TITLE "0:"
    INDEX 01 00:38:66
  TRACK 28 AUDIO
    TITLE "4:cjc173_5727"
    INDEX 01 00:39:14
  TRACK 29 AUDIO
    TITLE "0:"
    INDEX 01 00:42:07
  TRACK 30 AUDIO
    TITLE "5:cjc173_5728"
    INDEX 01 00:42:28
  TRACK 31 AUDIO
    TITLE "0:"
    INDEX 01 00:46:06
  TRACK 32 AUDIO
    TITLE "3:cjc173_5729"
    INDEX 01 00:46:52
  TRACK 33 AUDIO
    TITLE "0:"
    INDEX 01 00:47:73
  TRACK 34 AUDIO
    TITLE "4:cjc173_5730"
    INDEX 01 00:48:19
  TRACK 35 AUDIO
    TITLE "0:"
    INDEX 01 00:49:52
  TRACK 36 AUDIO
    TITLE "5:cjc173_5731"
    INDEX 01 00:49:71
  TRACK 37 AUDIO
    TITLE "0:"
    INDEX 01 00:55:11
  TRACK 38 AUDIO
    TITLE "3:cjc173_5732"
    INDEX 01 00:55:56
  TRACK 39 AUDIO
    TITLE "0:"
    INDEX 01 00:56:70
  TRACK 40 AUDIO
    TITLE "4:cjc173_5733"
    INDEX 01 00:57:16
  TRACK 41 AUDIO
    TITLE "0:"
    INDEX 01 00:58:31
  TRACK 42 AUDIO
    TITLE "5:cjc173_5734"
    INDEX 01 00:58:51
  TRACK 43 AUDIO
    TITLE "0:"
    INDEX 01 01:02:54
  TRACK 44 AUDIO
    TITLE "3:cjc173_5735"
    INDEX 01 01:03:25
  TRACK 45 AUDIO
    TITLE "0:"
    INDEX 01 01:04:38
  TRACK 46 AUDIO
    TITLE "4:cjc173_5736"
    INDEX 01 01:04:59
  TRACK 47 AUDIO
    TITLE "0:"
    INDEX 01 01:07:03
  TRACK 48 AUDIO
    TITLE "5:cjc173_5737"
    INDEX 01 01:07:24
  TRACK 49 AUDIO
    TITLE "0:"
    INDEX 01 01:12:31
  TRACK 50 AUDIO
    TITLE "3:cjc173_5738"
    INDEX 01 01:13:01
  TRACK 51 AUDIO
    TITLE "0:"
    INDEX 01 01:14:38
  TRACK 52 AUDIO
    TITLE "4:cjc173_5739"
    INDEX 01 01:14:58
  TRACK 53 AUDIO
    TITLE "0:"
    INDEX 01 01:17:74
  TRACK 54 AUDIO
    TITLE "5:cjc173_5740"
    INDEX 01 01:18:18
  TRACK 55 AUDIO
    TITLE "0:"
    INDEX 01 01:23:68
  TRACK 56 AUDIO
    TITLE "3:cjc173_5741"
    INDEX 01 01:24:40
  TRACK 57 AUDIO
    TITLE "0:"
    INDEX 01 01:25:61
  TRACK 58 AUDIO
    TITLE "4:cjc173_5742"
    INDEX 01 01:26:08
  TRACK 59 AUDIO
    TITLE "0:"
    INDEX 01 01:28:40
  TRACK 60 AUDIO
    TITLE "5:cjc173_5743"
    INDEX 01 01:28:60
  TRACK 61 AUDIO
    TITLE "0:"
    INDEX 01 01:33:43
